<svg width="20" height="21" viewBox="0 0 20 21" fill="none" xmlns="http://www.w3.org/2000/svg">
<g id="event_available">
<mask id="mask0_3_389" style="mask-type:alpha" maskUnits="userSpaceOnUse" x="0" y="0" width="20" height="21">
<rect id="Bounding box" y="0.75" width="20" height="20" fill="#D9D9D9"/>
</mask>
<g mask="url(#mask0_3_389)">
<path id="event_available_2" d="M9.12498 16.5462L6.16211 13.5951L7.34238 12.4148L9.12498 14.1974L12.6576 10.644L13.8379 11.8243L9.12498 16.5462ZM4.6413 19.1504C4.07178 19.1504 3.58912 18.95 3.19332 18.5494C2.79751 18.1487 2.59961 17.6685 2.59961 17.1087V6.3913C2.59961 5.83151 2.79751 5.35128 3.19332 4.95061C3.58912 4.54994 4.07178 4.34961 4.6413 4.34961H5.99998V2.34961H7.77084V4.34961H12.2291V2.34961H14V4.34961H15.3587C15.9282 4.34961 16.4108 4.54994 16.8067 4.95061C17.2025 5.35128 17.4004 5.83151 17.4004 6.3913V17.1087C17.4004 17.6685 17.2025 18.1487 16.8067 18.5494C16.4108 18.95 15.9282 19.1504 15.3587 19.1504H4.6413ZM4.6413 17.1087H15.3587V9.74998H4.6413V17.1087Z" fill="white"/>
</g>
</g>
</svg>
