<svg width="20" height="21" viewBox="0 0 20 21" fill="none" xmlns="http://www.w3.org/2000/svg">
<g id="alarm_on">
<mask id="mask0_3_408" style="mask-type:alpha" maskUnits="userSpaceOnUse" x="0" y="0" width="20" height="21">
<rect id="Bounding box" y="0.75" width="20" height="20" fill="#D9D9D9"/>
</mask>
<g mask="url(#mask0_3_408)">
<path id="alarm_on_2" d="M9.08695 14.7482L13.9456 9.8895L12.5453 8.48912L9.08695 11.9475L7.35779 10.2183L5.99002 11.5978L9.08695 14.7482ZM10 19.1504C8.98068 19.1504 8.02096 18.9558 7.12085 18.5668C6.22075 18.1777 5.43672 17.6492 4.76877 16.9812C4.10081 16.3133 3.57229 15.5292 3.18322 14.6291C2.79416 13.729 2.59962 12.7693 2.59962 11.75C2.59962 10.7307 2.79416 9.77096 3.18322 8.87085C3.57229 7.97075 4.10081 7.18672 4.76877 6.51877C5.43672 5.85081 6.22075 5.32229 7.12085 4.93322C8.02096 4.54415 8.98068 4.34962 10 4.34962C11.0193 4.34962 11.979 4.54415 12.8791 4.93322C13.7792 5.32229 14.5633 5.85081 15.2312 6.51877C15.8992 7.18672 16.4277 7.97075 16.8168 8.87085C17.2058 9.77096 17.4004 10.7307 17.4004 11.75C17.4004 12.7693 17.2058 13.729 16.8168 14.6291C16.4277 15.5292 15.8992 16.3133 15.2312 16.9812C14.5633 17.6492 13.7792 18.1777 12.8791 18.5668C11.979 18.9558 11.0193 19.1504 10 19.1504ZM4.76085 2.65125L5.96466 3.84327L2.09327 7.71466L0.901245 6.51085L4.76085 2.65125ZM15.2391 2.65125L19.0987 6.51085L17.9067 7.71466L14.0353 3.84327L15.2391 2.65125Z" fill="white"/>
</g>
</g>
</svg>
